<svg xmlns="http://www.w3.org/2000/svg" xmlns:xlink="http://www.w3.org/1999/xlink" width="100" zoomAndPan="magnify" viewBox="0 0 75 74.999997" height="100" preserveAspectRatio="xMidYMid meet" version="1.0"><defs><g/><clipPath id="ea2620ac46"><path d="M 2.097656 5.328125 L 72.597656 5.328125 L 72.597656 69.828125 L 2.097656 69.828125 Z M 2.097656 5.328125 " clip-rule="nonzero"/></clipPath></defs><g clip-path="url(#ea2620ac46)"><path fill="#4b5563" d="M 58.550781 31.539062 C 56.882812 31.539062 55.53125 30.191406 55.53125 28.523438 C 55.53125 26.855469 56.882812 25.503906 58.550781 25.503906 C 60.21875 25.503906 61.570312 26.855469 61.570312 28.523438 C 61.570312 30.191406 60.21875 31.539062 58.550781 31.539062 Z M 46.039062 31.539062 C 44.371094 31.539062 43.019531 30.191406 43.019531 28.523438 C 43.019531 26.855469 44.371094 25.503906 46.039062 25.503906 C 47.707031 25.503906 49.054688 26.855469 49.054688 28.523438 C 49.054688 30.191406 47.707031 31.539062 46.039062 31.539062 Z M 29 65.308594 C 24.808594 65.308594 20.832031 63.972656 17.5 61.441406 L 16.617188 60.777344 L 15.5625 61.097656 C 14.667969 61.371094 13.808594 61.578125 13 61.710938 C 12.019531 61.882812 11.054688 61.953125 10.152344 61.925781 C 9.859375 61.917969 9.578125 61.898438 9.292969 61.871094 C 9.582031 61.601562 9.859375 61.320312 10.125 61.023438 C 11.03125 60 11.78125 58.828125 12.414062 57.425781 L 12.863281 56.433594 L 12.335938 55.488281 C 10.773438 52.679688 9.949219 49.484375 9.953125 46.25 C 9.953125 41.035156 12.078125 36.292969 15.5 32.84375 C 17.566406 30.769531 20.101562 29.164062 22.929688 28.210938 C 22.925781 28.3125 22.925781 28.417969 22.925781 28.523438 C 22.925781 41.246094 33.242188 51.5625 45.96875 51.5625 C 46.417969 51.5625 46.867188 51.546875 47.308594 51.523438 C 45.015625 59.476562 37.675781 65.308594 29 65.308594 Z M 33.523438 25.503906 C 35.1875 25.503906 36.539062 26.855469 36.539062 28.523438 C 36.539062 30.191406 35.1875 31.539062 33.523438 31.539062 C 31.855469 31.539062 30.503906 30.191406 30.503906 28.523438 C 30.503906 26.855469 31.855469 25.503906 33.523438 25.503906 Z M 72.636719 46.035156 C 71.761719 45.679688 70.949219 45.253906 70.226562 44.757812 C 69.457031 44.234375 68.792969 43.640625 68.222656 42.996094 C 67.324219 41.984375 66.652344 40.859375 66.125 39.683594 C 67.957031 36.375 69.007812 32.566406 69.003906 28.511719 C 69 15.902344 58.722656 5.5625 46.113281 5.484375 C 35.03125 5.414062 25.742188 13.175781 23.46875 23.554688 C 13.253906 26.050781 5.632812 35.300781 5.632812 46.25 C 5.628906 49.824219 6.449219 53.367188 8.015625 56.558594 C 7.683594 57.15625 7.308594 57.683594 6.894531 58.148438 C 6.46875 58.632812 5.980469 59.058594 5.445312 59.425781 C 4.910156 59.792969 4.304688 60.113281 3.664062 60.363281 C 2.761719 60.71875 2.183594 61.515625 2.15625 62.445312 C 2.128906 63.398438 2.683594 64.253906 3.625 64.683594 C 3.714844 64.726562 3.8125 64.773438 3.90625 64.816406 C 4.097656 64.902344 4.28125 64.992188 4.480469 65.078125 C 5.136719 65.351562 5.800781 65.574219 6.445312 65.738281 C 7.582031 66.042969 8.789062 66.210938 10.027344 66.246094 C 11.21875 66.277344 12.464844 66.191406 13.71875 65.976562 C 14.382812 65.867188 15.070312 65.71875 15.777344 65.53125 C 19.679688 68.214844 24.226562 69.628906 29 69.628906 C 40.339844 69.628906 49.816406 61.507812 51.925781 50.777344 C 54.84375 50 57.535156 48.660156 59.878906 46.886719 C 60.882812 47.195312 61.914062 47.453125 62.953125 47.625 C 64.140625 47.828125 65.339844 47.921875 66.507812 47.886719 C 67.679688 47.855469 68.808594 47.691406 69.871094 47.410156 C 70.492188 47.25 71.105469 47.042969 71.699219 46.796875 C 72 46.671875 72.285156 46.523438 72.574219 46.394531 C 72.75 46.3125 72.898438 46.136719 72.636719 46.035156 " fill-opacity="1" fill-rule="nonzero"/></g><g fill="#4b5563" fill-opacity="1"><g transform="translate(52.289592, 38.874994)"><g><path d="M 0.296875 -0.203125 C 0.296875 -0.296875 0.316406 -0.363281 0.359375 -0.40625 C 0.398438 -0.445312 0.457031 -0.46875 0.53125 -0.46875 C 0.601562 -0.46875 0.660156 -0.445312 0.703125 -0.40625 C 0.742188 -0.363281 0.765625 -0.296875 0.765625 -0.203125 C 0.765625 -0.117188 0.742188 -0.0507812 0.703125 0 C 0.660156 0.0390625 0.601562 0.0625 0.53125 0.0625 C 0.457031 0.0625 0.398438 0.0390625 0.359375 0 C 0.316406 -0.0390625 0.296875 -0.109375 0.296875 -0.203125 Z M 0.296875 -0.203125 "/></g></g></g></svg>